<?xml version="1.0" encoding="utf-8"?>
<!-- Generator: Adobe Illustrator 28.1.0, SVG Export Plug-In . SVG Version: 6.00 Build 0)  -->
<svg version="1.1" id="Layer_1" xmlns="http://www.w3.org/2000/svg" xmlns:xlink="http://www.w3.org/1999/xlink" x="0px" y="0px"
	 viewBox="0 0 508 153" style="enable-background:new 0 0 508 153;" xml:space="preserve">
<style type="text/css">
	.st0{fill:#FFFFFF;}
</style>
<path d="M499.66,105.49c-0.55,0.67-1.07,1.37-1.67,2c-11.31,11.89-22.65,23.74-33.9,35.67c-1.38,1.46-2.73,2.1-4.75,2.1
	c-110.91-0.03-221.83-0.02-332.74-0.01c-33.58,0-67.16-0.03-100.75,0.04c-2.34,0-3.56-0.6-4.37-2.92
	c-4.14-11.95-8.47-23.83-12.71-35.75c-0.16-0.44-0.14-0.94-0.25-1.71c1.19-0.07,2.23-0.19,3.27-0.19c18-0.01,36-0.07,54,0.06
	c2.63,0.02,3.67-0.94,4.22-3.31c0.75-3.24,1.84-6.4,2.66-9.62c0.37-1.47,1.09-2.17,2.61-1.97c0.08,0.01,0.17,0,0.25,0
	c6.4-0.11,6.31-0.12,6.43-6.45c0.06-3.55,0.46-7.09,0.7-10.63c0.35,0.01,0.7,0.02,1.05,0.03c0.1,4.77,0.32,9.55,0.25,14.32
	c-0.03,2.29,0.84,2.91,2.95,2.77c1.86-0.12,3.83,0.3,3.52-2.7c-0.19-1.81,0.08-3.67-0.06-5.49c-0.16-2.04,0.53-2.76,2.66-2.73
	c7.33,0.12,14.67,0.04,22,0.05c1.44,0,2.74,0.14,3.32-1.77c0.18-0.61,1.57-1.13,2.45-1.19c2.32-0.17,4.66-0.1,7-0.05
	c1.82,0.04,2.28-1.04,2.29-2.56c0.01-1.57-0.33-2.85-2.31-2.8c-1.33,0.03-2.67-0.03-4,0c-1.56,0.04-2.3-0.63-2.26-2.24
	c0.04-1.5,0.33-2.68,2.16-2.68c6.58,0,13.17,0.01,19.75,0c1.79,0,2.2,1.06,2.22,2.61s-0.53,2.36-2.17,2.31
	c-1.33-0.04-2.67,0.07-4,0.01c-1.79-0.08-2.36,0.95-2.36,2.49c0,1.53,0.29,2.88,2.28,2.85c0.83-0.01,1.67,0.05,2.5,0
	c2.38-0.15,4.4,0.06,4.44,3.22c0.01,0.39,1,1.09,1.55,1.1c4.58,0.09,9.17,0.04,13.75,0.06c1.81,0.01,1.91-1.17,1.9-2.53
	c-0.02-5,0.08-10-0.04-15c-0.05-2.24,0.75-3.07,3-3.22c6.81-0.45,13.61-1.16,20.43-1.64c1.97-0.14,2.54-0.94,2.45-2.81
	c-0.13-2.83-0.15-5.67,0-8.5c0.13-2.49,0.56-4.96,0.85-7.44c0.41,0.02,0.81,0.04,1.22,0.06c0,5.05,0.1,10.11-0.05,15.16
	c-0.07,2.36,0.51,3.3,3.06,3.02c6.13-0.68,12.28-1.11,18.41-1.73c0.71-0.07,1.72-0.53,1.98-1.09c1.06-2.31,1.89-4.74,2.8-7.09
	c-3.36-1.52-4.82-5.02-3.47-8.16c0.29-0.67,1.32-1.44,2.03-1.46c4.41-0.13,8.83-0.15,13.24,0.04c0.71,0.03,1.78,1.2,1.96,2.01
	c0.32,1.43,0.39,3.06,0,4.45c-0.32,1.14-1.46,2.05-2.24,3.06c-0.31-0.06-0.62-0.12-0.93-0.18c0.72,2.07,1.3,4.21,2.26,6.16
	c0.25,0.5,1.76,0.68,2.6,0.53c2.27-0.4,2.98,0.42,2.89,2.65c-0.14,3.66,0,7.33-0.06,11c-0.03,1.67,0.55,2.4,2.32,2.39
	c7.17-0.07,14.33-0.09,21.5,0c1.99,0.02,2.38-1.07,2.54-2.62c0.53-5.05,1.03-10.11,1.63-15.15c0.67-5.67,0.48-4.44,4.96-4.59
	c1.33-0.04,2.68-0.11,4,0.04c2.35,0.26,3.03-0.77,3.02-3.01c-0.08-9.75-0.03-19.5-0.03-29.25c0-0.67-0.19-1.41,0.05-1.98
	c0.32-0.77,0.98-1.4,1.49-2.09c0.39,0.71,1.11,1.42,1.11,2.13c0.07,10.25,0.05,20.5,0.05,30.75c0,3.42,0.01,3.42,3.49,3.41
	c2,0,4.02-0.14,5.99,0.09c0.72,0.09,1.76,0.98,1.93,1.67c1.13,4.69,2.15,9.41,3.02,14.16c0.37,2.02,1.23,2.74,3.32,2.73
	c11.58-0.09,23.17,0.05,34.75-0.12c2.67-0.04,3.49,0.98,3.76,3.32c0.68,5.96,1.59,11.89,2.16,17.86c0.24,2.49,1.03,3.48,3.67,3.41
	c6.75-0.17,13.5,0.01,20.25-0.12c2.23-0.04,3.34,0.53,3.03,2.92c-0.24,1.86,0.44,2.78,2.49,3.19c3.16,0.62,5.42,2.62,5.93,5.97
	c0.25,1.63,1.04,2.06,2.5,2.04c3.92-0.04,7.84,0.05,11.75-0.09c0.76-0.03,2.12-0.82,2.13-1.25c0-1.35-0.18-3.63-0.9-3.89
	c-2.85-1.04-3.24-2.99-3.12-5.52c0.09-1.91-0.01-3.83,0.04-5.75c0.05-2.2,1.18-3.39,3.43-3.4c3.75-0.01,7.5-0.08,11.25,0.06
	c0.96,0.04,2.15,0.56,2.78,1.27c1.24,1.38,2.61,1.81,4.4,1.79c6.17-0.08,12.33-0.07,18.5,0.02c0.82,0.01,1.64,0.67,2.46,1.04
	c-0.82,0.46-1.64,1.3-2.47,1.31c-6.16,0.11-12.33,0.11-18.5,0.02c-2.43-0.04-3.5,0.81-3.39,3.35c0.09,2.1-0.27,4.13-2.48,5.36
	c-0.49,0.27-0.81,1.61-0.58,2.23c0.45,1.25-0.07,3.29,2.19,3.4c0.67,0.03,1.33,0.03,2,0.03c10.33,0,20.67,0.02,31-0.06
	c0.83-0.01,2.37-0.82,2.36-1.22c-0.05-1.45,1.22-3.47-1.23-4.23c-2.18-0.68-2.92-2.22-2.8-4.41c0.11-2.08-0.02-4.17,0.05-6.25
	c0.08-2.63,1.09-3.66,3.66-3.69c3.58-0.05,7.17-0.11,10.75,0.03c1.06,0.04,2.42,0.46,3.07,1.21c1.3,1.49,2.73,1.89,4.61,1.86
	c6.08-0.09,12.17-0.08,18.25,0.03c0.84,0.02,1.66,0.82,2.49,1.26c-0.82,0.38-1.63,1.07-2.45,1.09c-6.25,0.09-12.5,0.09-18.75,0.03
	c-2.21-0.02-3.22,0.82-3.13,3.1c0.1,2.33-0.38,4.36-2.64,5.81c-0.55,0.35-0.31,2.36,0,3.48c0.21,0.76,1.09,1.49,1.85,1.88
	c0.6,0.31,1.47,0.09,2.22,0.09c14.33,0,28.67-0.01,43-0.01c0.9,0,1.79,0,2.69,0C499.42,105.04,499.54,105.27,499.66,105.49z
	 M217.66,55.4c1.91-0.17,3.12-0.27,4.33-0.38c5.3-0.49,5.5-0.8,3.64-5.91c-0.19-0.53-0.47-1.07-0.85-1.47
	c-1.15-1.18-3.64-1.05-4.24,0.31C219.55,50.18,218.76,52.5,217.66,55.4z"/>
<path class="st0" d="M217.66,55.4c1.1-2.9,1.88-5.22,2.87-7.46c0.6-1.35,3.09-1.49,4.24-0.31c0.38,0.4,0.66,0.94,0.85,1.47
	c1.86,5.11,1.66,5.43-3.64,5.91C220.78,55.12,219.57,55.23,217.66,55.4z"/>
</svg>
