<?xml version="1.0" encoding="utf-8"?>
<!-- Generator: Adobe Illustrator 28.1.0, SVG Export Plug-In . SVG Version: 6.00 Build 0)  -->
<svg version="1.1" id="Layer_1" xmlns="http://www.w3.org/2000/svg" xmlns:xlink="http://www.w3.org/1999/xlink" x="0px" y="0px"
	 viewBox="0 0 539.2 198" style="enable-background:new 0 0 539.2 198;" xml:space="preserve">
<style type="text/css">
	.st0{fill:#FFFFFF;}
</style>
<path class="st0" d="M217.66,100.4c1.1-2.9,1.88-5.22,2.87-7.46c0.6-1.35,3.09-1.49,4.24-0.31c0.38,0.4,0.66,0.94,0.85,1.47
	c1.86,5.11,1.66,5.43-3.64,5.91C220.78,100.12,219.57,100.23,217.66,100.4z"/>
<path d="M477.2,142.1"/>
<g>
	<path d="M497.73,143.14c10.67,0.01,21.33,0.01,32,0.02c0.97,0,1.93,0.09,3.43,0.16c-0.66,1.34-1.05,2.29-1.56,3.17
		c-6.75,11.54-13.57,23.04-20.24,34.63c-1.11,1.94-2.59,1.99-4.38,1.99c-67.83-0.01-135.66-0.01-203.48-0.01
		c-92.91,0-185.82,0-278.73,0c-2.5,0-5.01,0.13-7.49-0.1c-0.79-0.07-2.02-1-2.17-1.71c-2.15-10.4-4.14-20.84-6.18-31.27
		c-0.22-1.14-0.58-2.26-0.78-3.4c-0.55-3.15-0.26-3.48,2.9-3.48c6.92,0,13.83,0.01,20.75,0.01c7,0,14-0.08,21,0.02
		c2.1,0.03,2.83-0.74,2.79-2.76c-0.03-1.2,0.25-2.43,0.52-3.61c0.52-2.23-0.49-3.72-2.81-3.91c-4.4-0.37-8.8-0.7-13.2-1.06
		c-0.67-0.06-1.33-0.22-1.94-0.78c3.27,0,6.59-0.35,9.8,0.08c5.02,0.66,9.71-1.02,14.56-1.44c1.62-0.14,3.15-1.28,4.76-1.44
		c1.18-0.11,2.42,0.71,3.66,1.01c0.65,0.16,1.53,0.36,2,0.06c2.64-1.68,5.17-1.94,7.73,0.12c0.29,0.24,0.77,0.27,1.18,0.33
		c3.01,0.44,4.2,2.26,3.13,5.1c-0.18,0.49-1.06,0.9-1.68,1.02c-1.03,0.21-2.1,0.17-2.86,0.21c0.16,1.81,0.4,3.4,0.41,4.98
		c0,1.5,0.58,2.09,2.08,2.05c2.41-0.06,4.84,0.11,7.24-0.08c0.66-0.05,1.75-1.04,1.77-1.62c0.06-1.95,1-2.33,2.7-2.32
		c6.58,0.06,13.17-0.04,19.75,0.06c2.07,0.03,2.8-0.63,2.71-2.71c-0.14-3.24-0.02-6.48-0.03-9.73c-0.02-3.23-0.07-3.28-3.42-3.29
		c-3.67-0.02-7.33,0.01-11-0.03c-0.83-0.01-1.65-0.25-2.47-0.38c-0.01-0.27-0.03-0.53-0.04-0.8c0.78-0.17,1.55-0.48,2.33-0.49
		c3.92-0.06,7.83-0.09,11.75-0.01c2.13,0.04,3.12-0.72,2.87-2.93c-0.11-0.98-0.01-1.99,0-2.99c0.03-3.49,0.03-3.57-3.32-3.75
		c-1.54-0.08-1.8-0.85-1.73-2.08c0.06-1.2-0.29-2.92,1.6-2.72c3.34,0.36,3.69-1.39,3.47-4.01c-0.16-1.9-0.1-3.82-0.01-5.73
		c0.07-1.75-0.7-2.36-2.39-2.33c-3.5,0.05-7-0.04-10.5,0.01c-1.47,0.02-2.35-0.25-2.33-2.03c0.02-1.68,0.73-2.15,2.27-2.12
		c3.5,0.06,7-0.05,10.5,0.05c1.83,0.05,2.48-0.58,2.46-2.44c-0.08-7.48-0.02-14.97-0.02-22.45c0-0.58-0.14-1.21,0.04-1.73
		c0.21-0.6,0.7-1.11,1.07-1.66c0.46,0.58,1.22,1.1,1.32,1.74c0.21,1.3,0.06,2.65,0.08,3.98c0.1,7.97,0.26,15.95,0.28,23.92
		c0.01,3.98-0.16,7.97-0.34,11.95c-0.09,1.97,0.52,3.03,2.66,2.8c1.84-0.2,2.52,0.73,2.55,2.5c0.04,1.94-0.97,2.54-2.66,2.34
		c-2.06-0.24-2.6,0.79-2.57,2.63c0.06,3.82,0.06,7.65-0.03,11.47c-0.05,2,0.68,2.82,2.77,2.8c8.08-0.08,16.17-0.08,24.25-0.01
		c1.95,0.02,2.83-0.67,2.57-2.62c-0.33-2.46,0.82-3.37,3.17-3.08c0.41,0.05,0.83,0.04,1.25,0.03c3.18-0.03,5.33-2.18,5.38-5.39
		c0.01-0.66-0.09-1.34-0.01-1.99c0.23-1.79-0.16-3.15-2.39-3.32c1.31-1.02,2.32-1.8,3.32-2.59c2.69-2.13,6.32-0.86,6.79,2.49
		c0.24,1.71,0.13,3.48,0.07,5.22c-0.07,1.75,0.51,2.62,2.42,2.55c2.83-0.11,5.67-0.07,8.5-0.02c1.62,0.03,2.31-0.54,2.47-2.28
		c1.24-14.15,2.6-28.3,3.89-42.45c0.12-1.26,0.27-2.21,1.88-2.37c6.05-0.62,12.08-1.33,18.12-2.04c1.75-0.21,2.61,0.26,3.16,2.17
		c4.88,16.89,9.9,33.73,14.89,50.59c0.1,0.35,0.3,0.68,0.94,0.96c0.05-1.03,0.14-2.05,0.14-3.08c0.02-14.39,0.05-28.77-0.01-43.16
		c-0.01-2.29,0.33-3.77,3.09-3.38c1.36,0.19,1.94-0.5,1.92-1.89c-0.05-4.16-0.05-8.32,0-12.47c0.02-1.5-0.63-2-2.07-2.13
		c-2.62-0.24-3.41-2.29-1.96-4.55c0.51-0.79,0.92-1.74,1.03-2.65c0.16-1.45-0.22-2.93,1.74-3.68c0.49-0.19,0.6-1.77,0.6-2.71
		c0.04-11.64,0.03-23.28,0.03-34.92c0-0.58-0.16-1.23,0.04-1.73c0.32-0.79,0.88-1.47,1.34-2.2c0.37,0.71,1.06,1.42,1.06,2.13
		c0.08,8.4,0.05,16.8,0.05,25.2c0,4.07,0.07,8.15-0.03,12.22c-0.05,1.85,0.6,2.62,2.45,2.41c0.66-0.07,1.34,0.06,2-0.02
		c1.99-0.23,2.61,0.69,2.63,2.59c0.01,0.98,0.6,2.71,1.12,2.79c1.84,0.28,3.93,0.4,5.58-0.27c0.69-0.28,0.51-2.69,0.7-4.14
		c0.02-0.14-0.08-0.4-0.18-0.44c-3.76-1.42-1.98-4.63-2.07-7.03c-0.18-4.9-0.96-4.69,4.58-4.72c1.83-0.01,3.69-0.14,5.49,0.11
		c0.67,0.09,1.69,1.08,1.74,1.71c0.2,2.56,0.13,5.15,0.04,7.73c-0.02,0.55-0.54,1.08-0.85,1.61c-0.37,0.63-1.04,1.23-1.09,1.87
		c-0.28,3.75-0.22,3.76,3.51,3.79c0.75,0.01,1.5,0.06,2.25,0.02c1.84-0.11,2.17,0.89,2.2,2.49c0.02,1.7-0.56,2.43-2.3,2.41
		c-3.42-0.04-6.83,0.04-10.25,0.04c-1.61,0-2.27,0.49-1.71,2.27c1.28,4.03,2.4,8.11,3.55,12.18c0.43,1.52,1.35,2.1,2.93,2.03
		c2.32-0.1,4.64-0.03,7.03-0.03c-0.08-0.48-0.08-0.74-0.12-0.74c-3.61-0.61-3.61-0.61-3.62-4.43c-0.01-2-0.16-4.01,0.07-5.98
		c0.08-0.68,1.01-1.59,1.72-1.79c1.08-0.3,2.32-0.17,3.47-0.03c0.56,0.07,1.51,0.54,1.53,0.88c0.15,2.17,2.11,2.83,3.14,4.22
		c1.23,1.66,1.88,3.81,2.47,5.84c0.38,1.33,0.89,2.09,2.31,2.06c1.79-0.03,2.22,1,2.21,2.58c-0.05,5.16,0.06,10.31-0.07,15.47
		c-0.05,2.21,0.76,3.02,2.92,2.84c1.49-0.12,3-0.01,4.5-0.01c3.11,0.01,3.14,0.04,3.14,3.26c0,1.16,0.01,2.33,0.01,3.49
		c0.02,3.21,0.02,3.22,3.36,3.22c3.08,0.01,6.17,0.11,9.25-0.03c2.05-0.1,2.56,0.73,2.54,2.62c-0.09,5.82,0.03,11.64-0.07,17.46
		c-0.04,2.16,0.69,2.88,2.89,2.86c10.16-0.1,20.33,0,30.5-0.09c2.04-0.02,2.83,0.56,2.74,2.67c-0.14,3.15,0.01,6.32-0.06,9.48
		c-0.03,1.47,0.48,2.1,2.01,2.1c13.25-0.02,26.5,0,39.75,0.01"/>
	<path d="M476.32,120.12c-6.99-0.38-13.98-0.77-21.6-1.19c4.1-2.6,42.65-2.71,47.23-0.01c-6.63,0.4-13.25,0.8-19.86,1.19
		c0,2.5,2.03,4.47,4.47,4.99c2.24,0.48,4.56,1.06,6.54,2.15c3.07,1.68,3.88,4.41,2.96,7.93c-0.66,2.53-3.11,4.16-6.16,4.69
		c-2.84,0.49-5.6-0.07-7.91-1.21c-3.36-1.66-6.78-1.19-10.18-1.48c-2.38-0.2-4.47-1.53-4.69-3.81c-0.25-2.5-2.14-3.27-3.84-3.59
		c-3-0.57-6.06-0.16-9.09-1.52c-1.86-0.84-4.42-0.05-6.67-0.12c-2.01-0.07-3.26-1.2-3.56-3.19c-0.31-2.06,0.21-3.84,2.29-4.76
		c1.85-0.82,4.3-0.13,5.36,1.45c0.23,0.34,0.49,0.75,0.49,1.12c0.01,2.41,1.48,2.75,3.49,2.72c5.08-0.07,10.16-0.05,15.24,0
		c1.64,0.02,2.65-0.61,3.97-1.72C476.18,122.59,476.3,121.63,476.32,120.12z"/>
	<path d="M385.43,120.13c-7.22-0.39-14.26-0.78-21.29-1.16c-0.03-0.19-0.07-0.37-0.1-0.56c0.44-0.21,0.87-0.56,1.33-0.62
		c2.31-0.28,4.63-0.68,6.95-0.69c10.24-0.07,20.49-0.07,30.73,0.03c2.62,0.02,5.24,0.5,7.85,0.77c0,0.34,0,0.68-0.01,1.02
		c-6.62,0.4-13.23,0.8-19.94,1.21c0,0.9,0,1.7,0,3.12c2.74,0.88,5.62,1.79,8.5,2.72c4.13,1.34,6.01,3.89,5.69,7.66
		c-0.26,3.1-1.7,4.78-4.66,5.75c-3.26,1.07-3.26,1.07-9.43-0.68c-4.43-1.22-7.2-1.19-10.8-1.52c-2.46-0.23-3.83-1.68-4.23-3.71
		c-0.53-2.69-2.48-3.51-4.54-3.79c-4.99-0.69-10.04-1.01-15.06-1.5c-2.27-0.22-3.78-1.92-3.75-4.19c0.03-2.16,1.53-3.87,3.59-4.1
		c2.39-0.26,4.45,0.87,4.68,3.06c0.23,2.16,1.28,2.53,3.13,2.51c5-0.07,10,0,14.99,0C382.97,125.45,384.56,124.14,385.43,120.13z"/>
</g>
</svg>
